<?xml version="1.0" standalone="no"?>
<!DOCTYPE svg PUBLIC "-//W3C//DTD SVG 20010904//EN"
 "http://www.w3.org/TR/2001/REC-SVG-20010904/DTD/svg10.dtd">
<svg version="1.0" xmlns="http://www.w3.org/2000/svg"
 width="1050.000000pt" height="237.000000pt" viewBox="0 0 1050.000000 237.000000"
 preserveAspectRatio="xMidYMid meet">

<g transform="translate(0.000000,237.000000) scale(0.100000,-0.100000)"
fill="#000000" stroke="none">
<path d="M6970 1249 c-245 -567 -447 -1035 -448 -1040 -3 -6 70 -8 189 -7
l194 3 80 192 80 193 331 0 331 0 75 -192 76 -193 227 -3 c180 -2 226 0 222
10 -61 158 -894 2068 -902 2068 -6 0 -211 -464 -455 -1031z m529 -77 c50 -128
91 -238 91 -243 0 -5 -79 -9 -190 -9 -127 0 -190 4 -190 11 0 12 192 480 196
476 1 -1 43 -107 93 -235z"/>
<path d="M8620 1240 l0 -1040 201 0 201 0 -7 592 -7 593 28 -26 c16 -14 324
-293 684 -620 361 -327 663 -600 673 -608 16 -13 17 44 17 1028 l0 1041 -197
0 -196 0 5 -600 c5 -548 4 -599 -10 -588 -9 7 -322 295 -695 641 -373 345
-683 627 -688 627 -5 0 -9 -423 -9 -1040z"/>
<path d="M256 2193 c-3 -16 -8 -49 -12 -74 l-6 -46 106 -13 c59 -7 108 -16
111 -19 2 -5 -223 -1574 -237 -1651 -2 -10 -32 -20 -97 -32 -51 -9 -95 -19
-96 -20 -1 -2 -5 -33 -9 -70 l-7 -68 360 0 360 0 5 33 c3 17 7 49 9 69 3 37 3
37 -43 44 -197 29 -195 28 -198 50 -2 17 137 1317 154 1443 8 56 10 52 73
-149 28 -91 165 -462 303 -825 l253 -660 233 -3 c127 -1 232 1 232 6 0 8 266
1756 275 1808 5 31 7 32 84 44 l79 12 6 37 c3 20 6 53 6 74 l0 37 -324 0 -323
0 -7 -31 c-3 -17 -6 -51 -6 -74 l0 -42 110 -13 c61 -8 110 -17 110 -22 0 -20
-171 -1385 -176 -1408 -5 -19 -22 20 -70 160 -35 102 -169 464 -297 805 l-234
620 -361 3 -360 2 -6 -27z"/>
<path d="M4720 1201 l0 -1001 368 0 c202 0 406 5 452 11 249 30 451 128 612
297 191 200 278 467 248 763 -48 481 -322 800 -775 900 -92 20 -133 22 -502
26 l-403 5 0 -1001z m852 600 c147 -38 247 -107 327 -226 69 -104 91 -180 98
-336 7 -149 -9 -237 -62 -348 -65 -135 -198 -236 -372 -282 -60 -16 -120 -22
-265 -26 l-188 -6 0 622 0 621 193 0 c159 0 207 -3 269 -19z"/>
<path d="M4009 2033 c-44 -103 -112 -231 -147 -278 -32 -42 -48 -53 -122 -82
l-85 -33 -16 -70 -16 -70 79 0 c47 0 78 -4 78 -10 0 -6 -27 -207 -59 -448 -84
-615 -85 -629 -71 -698 10 -48 20 -66 54 -100 58 -56 108 -68 249 -62 84 4
130 12 185 31 84 29 202 100 251 151 34 35 34 35 21 80 -7 26 -14 46 -15 46
-2 0 -25 -11 -52 -25 -26 -14 -75 -30 -107 -36 -107 -19 -155 5 -163 83 -3 24
18 214 47 423 28 209 56 421 63 470 l12 90 152 3 151 3 12 87 c6 48 14 95 16
105 5 16 -7 17 -145 17 -150 0 -151 0 -151 23 0 12 9 92 20 177 11 85 20 158
20 163 0 4 -54 7 -120 7 l-121 0 -20 -47z"/>
<path d="M2911 1740 c-288 -40 -513 -211 -646 -493 -55 -116 -81 -214 -97
-364 -26 -246 37 -454 177 -581 103 -94 216 -132 392 -133 175 0 291 34 420
123 70 48 193 168 193 188 0 8 -61 111 -76 129 -2 2 -24 -19 -49 -47 -101
-112 -203 -162 -332 -162 -89 0 -127 14 -174 67 -52 57 -80 139 -86 249 l-6
91 85 6 c96 8 246 43 337 80 158 64 289 175 348 295 34 68 38 84 41 172 5 129
-12 190 -74 259 -51 57 -112 92 -189 109 -74 17 -191 22 -264 12z m74 -204
c54 -55 61 -228 12 -328 -53 -108 -196 -213 -320 -237 l-47 -8 0 42 c0 67 30
222 61 322 51 158 121 232 222 233 37 0 53 -5 72 -24z"/>
</g>
</svg>
